<svg xmlns="http://www.w3.org/2000/svg" xmlns:xlink="http://www.w3.org/1999/xlink" version="1.1" x="0px" y="0px" viewBox="0 0 56 75" style="enable-background:new 0 0 56 60;" xml:space="preserve"><g><path d="M55,6H1C0.448,6,0,5.553,0,5V1c0-0.553,0.448-1,1-1h54c0.552,0,1,0.447,1,1v4C56,5.553,55.552,6,55,6z M2,4h52V2H2V4z"/><path d="M53,60H3c-0.552,0-1-0.447-1-1V5c0-0.553,0.448-1,1-1h50c0.552,0,1,0.447,1,1v54C54,59.553,53.552,60,53,60z M4,58h48V6H4   V58z"/><path d="M18,22H8c-0.552,0-1-0.447-1-1V9c0-0.553,0.448-1,1-1h10c0.552,0,1,0.447,1,1v12C19,21.553,18.552,22,18,22z M9,20h8V10H9   V20z"/><path d="M18,14H8c-0.552,0-1-0.447-1-1s0.448-1,1-1h10c0.552,0,1,0.447,1,1S18.552,14,18,14z"/><path d="M13,17c-0.552,0-1-0.447-1-1v-3c0-0.553,0.448-1,1-1s1,0.447,1,1v3C14,16.553,13.552,17,13,17z"/><path d="M48,22H38c-0.552,0-1-0.447-1-1V9c0-0.553,0.448-1,1-1h10c0.552,0,1,0.447,1,1v12C49,21.553,48.552,22,48,22z M39,20h8V10   h-8V20z"/><path d="M48,14H38c-0.552,0-1-0.447-1-1s0.448-1,1-1h10c0.552,0,1,0.447,1,1S48.552,14,48,14z"/><path d="M43,17c-0.552,0-1-0.447-1-1v-3c0-0.553,0.448-1,1-1s1,0.447,1,1v3C44,16.553,43.552,17,43,17z"/><path d="M33,22H23c-0.552,0-1-0.447-1-1V9c0-0.553,0.448-1,1-1h10c0.552,0,1,0.447,1,1v12C34,21.553,33.552,22,33,22z M24,20h8V10   h-8V20z"/><path d="M33,14H23c-0.552,0-1-0.447-1-1s0.448-1,1-1h10c0.552,0,1,0.447,1,1S33.552,14,33,14z"/><path d="M28,17c-0.552,0-1-0.447-1-1v-3c0-0.553,0.448-1,1-1s1,0.447,1,1v3C29,16.553,28.552,17,28,17z"/><path d="M18,38H8c-0.552,0-1-0.447-1-1V25c0-0.553,0.448-1,1-1h10c0.552,0,1,0.447,1,1v12C19,37.553,18.552,38,18,38z M9,36h8V26H9   V36z"/><path d="M18,30H8c-0.552,0-1-0.447-1-1s0.448-1,1-1h10c0.552,0,1,0.447,1,1S18.552,30,18,30z"/><path d="M13,33c-0.552,0-1-0.447-1-1v-3c0-0.553,0.448-1,1-1s1,0.447,1,1v3C14,32.553,13.552,33,13,33z"/><path d="M48,38H38c-0.552,0-1-0.447-1-1V25c0-0.553,0.448-1,1-1h10c0.552,0,1,0.447,1,1v12C49,37.553,48.552,38,48,38z M39,36h8V26   h-8V36z"/><path d="M48,30H38c-0.552,0-1-0.447-1-1s0.448-1,1-1h10c0.552,0,1,0.447,1,1S48.552,30,48,30z"/><path d="M43,33c-0.552,0-1-0.447-1-1v-3c0-0.553,0.448-1,1-1s1,0.447,1,1v3C44,32.553,43.552,33,43,33z"/><path d="M33,38H23c-0.552,0-1-0.447-1-1V25c0-0.553,0.448-1,1-1h10c0.552,0,1,0.447,1,1v12C34,37.553,33.552,38,33,38z M24,36h8V26   h-8V36z"/><path d="M33,30H23c-0.552,0-1-0.447-1-1s0.448-1,1-1h10c0.552,0,1,0.447,1,1S33.552,30,33,30z"/><path d="M28,33c-0.552,0-1-0.447-1-1v-3c0-0.553,0.448-1,1-1s1,0.447,1,1v3C29,32.553,28.552,33,28,33z"/><path d="M37,60H19c-0.552,0-1-0.447-1-1V41c0-0.553,0.448-1,1-1h18c0.552,0,1,0.447,1,1v18C38,59.553,37.552,60,37,60z M20,58h16   V42H20V58z"/><path d="M21,46h-2c-0.552,0-1-0.447-1-1s0.448-1,1-1h2c0.552,0,1,0.447,1,1S21.552,46,21,46z"/><path d="M21,56h-2c-0.552,0-1-0.447-1-1s0.448-1,1-1h2c0.552,0,1,0.447,1,1S21.552,56,21,56z"/><path d="M37,46h-2c-0.552,0-1-0.447-1-1s0.448-1,1-1h2c0.552,0,1,0.447,1,1S37.552,46,37,46z"/><path d="M37,56h-2c-0.552,0-1-0.447-1-1s0.448-1,1-1h2c0.552,0,1,0.447,1,1S37.552,56,37,56z"/><path d="M28,60c-0.552,0-1-0.447-1-1V41c0-0.553,0.448-1,1-1s1,0.447,1,1v18C29,59.553,28.552,60,28,60z"/><path d="M24,52c-0.552,0-1-0.447-1-1v-2c0-0.553,0.448-1,1-1s1,0.447,1,1v2C25,51.553,24.552,52,24,52z"/><path d="M32,52c-0.552,0-1-0.447-1-1v-2c0-0.553,0.448-1,1-1s1,0.447,1,1v2C33,51.553,32.552,52,32,52z"/><path d="M11,55c-0.21,0-0.417-0.011-0.621-0.033c-1.652-0.175-3.09-1.137-3.841-2.573c-0.726-1.388-0.713-3.032,0.035-4.397   l3.55-6.477c0.351-0.641,1.403-0.641,1.754,0l3.55,6.477c0.748,1.365,0.761,3.01,0.035,4.397c-0.751,1.437-2.189,2.398-3.845,2.573   C11.417,54.989,11.21,55,11,55z M11,44.08l-2.673,4.877c-0.432,0.789-0.439,1.704-0.017,2.51c0.447,0.854,1.279,1.405,2.284,1.512   c0.273,0.029,0.544,0.029,0.807,0c1.009-0.106,1.842-0.657,2.288-1.512c0.422-0.806,0.416-1.721-0.017-2.51L11,44.08z"/><path d="M11,60c-0.552,0-1-0.447-1-1v-8c0-0.553,0.448-1,1-1s1,0.447,1,1v8C12,59.553,11.552,60,11,60z"/><path d="M45,55c-0.21,0-0.417-0.011-0.621-0.033c-1.652-0.175-3.09-1.137-3.841-2.573c-0.726-1.388-0.713-3.032,0.035-4.397   l3.55-6.477c0.351-0.641,1.403-0.641,1.754,0l3.55,6.477c0.748,1.365,0.761,3.01,0.035,4.397c-0.751,1.437-2.189,2.398-3.845,2.573   C45.417,54.989,45.21,55,45,55z M45,44.08l-2.673,4.877c-0.432,0.789-0.439,1.704-0.017,2.51c0.447,0.854,1.279,1.405,2.284,1.512   c0.273,0.029,0.544,0.029,0.807,0c1.009-0.106,1.842-0.657,2.288-1.512c0.422-0.806,0.416-1.721-0.017-2.51L45,44.08z"/><path d="M45,60c-0.552,0-1-0.447-1-1v-8c0-0.553,0.448-1,1-1s1,0.447,1,1v8C46,59.553,45.552,60,45,60z"/></g><text x="0" y="75" fill="#000000" font-size="5px" font-weight="bold" font-family="'Helvetica Neue', Helvetica, Arial-Unicode, Arial, Sans-serif">Created by Prettycons</text><text x="0" y="80" fill="#000000" font-size="5px" font-weight="bold" font-family="'Helvetica Neue', Helvetica, Arial-Unicode, Arial, Sans-serif">from the Noun Project</text></svg>