<?xml version="1.0"?>
<svg xmlns="http://www.w3.org/2000/svg" id="outline" viewBox="0 0 64 64" width="512" height="512"><path d="M2,34V51a7.008,7.008,0,0,0,7,7h.382L8.105,60.553A1,1,0,0,0,9,62h4a1,1,0,0,0,.895-.553L15.618,58H48.382l1.723,3.447A1,1,0,0,0,51,62h4a1,1,0,0,0,.9-1.447L54.618,58H55a7.008,7.008,0,0,0,7-7V34Zm23,2V47a3,3,0,0,1-3,3H18a3,3,0,0,1-3-3V36ZM4,36h9v2H4Zm8.382,24H10.618l1-2h1.764Zm41,0H51.618l-1-2h1.764ZM60,51a5,5,0,0,1-.1,1H43v2H58.974A4.977,4.977,0,0,1,55,56H9a5.006,5.006,0,0,1-5-5V44H8V42H4V40h9v7a5.006,5.006,0,0,0,5,5h4a5.006,5.006,0,0,0,5-5V40H60Zm0-15v2H27V36Z"/><rect x="39" y="52" width="2" height="2"/><path d="M44,2V8H36v6H60V8H52V2Zm2,2h4V8H46Zm12,6v2H38V10Z"/><rect x="43" y="16" width="2" height="4"/><rect x="47" y="16" width="2" height="4"/><rect x="51" y="16" width="2" height="4"/><rect x="43" y="22" width="2" height="4"/><rect x="47" y="22" width="2" height="4"/><rect x="51" y="22" width="2" height="4"/><rect x="43" y="28" width="2" height="4"/><rect x="47" y="28" width="2" height="4"/><rect x="51" y="28" width="2" height="4"/></svg>
